<svg width="24" height="24" viewBox="0 0 24 24" fill="none" xmlns="http://www.w3.org/2000/svg">
<path d="M12.5609 7.23602L15.435 10.1091V8.70123L14.9601 8.22647H15.435V7.23602H12.5609Z" fill="white"/>
<path d="M20.1597 8.39018C20.3071 8.08731 20.4135 7.76808 20.4626 7.43247C19.9632 7.3015 19.4473 7.23602 18.9232 7.23602H15.7625V8.56207H15.7707L16.7615 9.55252V8.22647H18.9232C19.3408 8.22647 19.7584 8.28377 20.1597 8.39018Z" fill="white"/>
<path d="M11.4227 16.7722L10.4237 15.7817L8.54862 13.9072V15.307L8.67963 15.4461L9.01535 15.7817H8.54043L8.54862 15.7899V16.7722H11.4227Z" fill="white"/>
<path d="M24 12.0082C24 10.3874 23.2631 9.01228 22.0348 8.16098C21.9365 8.0955 21.8383 8.03001 21.74 7.97271C21.4371 7.79263 21.1177 7.64529 20.7902 7.53888C20.7329 7.87449 20.6264 8.19372 20.479 8.50477C20.4381 8.61119 20.3808 8.70941 20.3234 8.80764C20.1187 9.1678 19.8649 9.49522 19.5701 9.78172L18.2764 11.075L18.9805 11.779L20.2743 10.4857C20.6428 10.1255 20.9539 9.71623 21.216 9.26603C21.2733 9.1678 21.3306 9.06958 21.3797 8.97135C21.4698 9.03683 21.5599 9.10232 21.6418 9.17599C22.436 9.86357 22.8864 10.8704 22.8864 12.0164C22.8864 13.1623 22.4442 14.1692 21.6499 14.8567C21.8137 15.176 21.9447 15.5116 22.043 15.8554C23.263 14.9795 24 13.6044 24 12.0082Z" fill="white"/>
<path d="M16.7615 12.573L13.8874 15.4461H15.2958L15.7707 14.9713V15.4461H16.7615V12.573Z" fill="white"/>
<path d="M8.2129 5.06685C8.2129 4.64939 8.26203 4.24011 8.36847 3.83902C8.06551 3.69168 7.74616 3.59345 7.41044 3.54434C7.27943 4.04366 7.21392 4.55935 7.21392 5.06685V8.22647H8.54043V8.21828L9.53122 7.22783H8.20471L8.2129 5.06685Z" fill="white"/>
<path d="M7.22211 15.7817H5.0522C4.6346 15.7817 4.22518 15.7326 3.82395 15.618C3.67656 15.9209 3.57011 16.2483 3.52098 16.5757C4.02047 16.7067 4.53634 16.7722 5.0522 16.7722H8.2129V15.4461L7.22211 14.4557V15.7817Z" fill="white"/>
<path d="M16.7615 11.4352L17.0972 11.7708V11.7626L17.7932 11.0587L15.7707 9.03683V13.0969L16.7615 12.0982V11.4352Z" fill="white"/>
<path d="M15.7707 18.9413C15.7707 19.3588 15.7216 19.7681 15.607 20.1692C15.9099 20.3165 16.2375 20.4229 16.5732 20.472C16.7042 19.9727 16.7697 19.457 16.7697 18.9413V15.7817H15.4432V15.7899L14.4524 16.7804H15.7789L15.7707 18.9413Z" fill="white"/>
<path d="M10.0143 7.23602L9.01535 8.22647H13.085L12.086 7.23602H11.4145L11.7503 6.90041L11.0542 6.19645L10.0143 7.23602Z" fill="white"/>
<path d="M13.5189 3.73261L12.2334 5.02592L11.2917 5.96726L12.2334 6.90859V6.90041H13.6254L12.9376 6.20464L12.7001 5.96726L12.9376 5.72988L14.2231 4.42838C14.5179 4.1337 14.8454 3.87994 15.2057 3.67531C15.0993 3.35607 14.9355 3.05321 14.739 2.78308C14.2886 3.04502 13.8792 3.36426 13.5189 3.73261Z" fill="white"/>
<path d="M10.4565 20.2838L12.6919 18.0491L11.7503 17.1078H10.3419L11.1771 17.9427L11.2917 18.0491L9.76049 19.5798C9.46571 19.8745 9.13818 20.1282 8.78608 20.3329C8.89253 20.6521 9.05629 20.955 9.25281 21.2251C9.6868 20.9632 10.0962 20.6439 10.4565 20.2838Z" fill="white"/>
<path d="M17.7932 12.9495L18.0307 12.7121L19.5619 14.2428C19.8567 14.5375 20.1105 14.8649 20.3152 15.2251C20.6346 15.1187 20.9294 14.9632 21.1996 14.7585C20.9457 14.3165 20.6264 13.9072 20.2579 13.5389L18.0307 11.3042L17.3265 12.0082L17.2119 12.1146L17.089 12.2374V13.6371L17.7932 12.9495Z" fill="white"/>
<path d="M6.18219 11.0668L5.94473 11.3042L4.41351 9.77353C4.11873 9.47885 3.86489 9.15143 3.66018 8.79945C3.34084 8.90587 3.04606 9.06958 2.77584 9.26603C3.03787 9.70805 3.34903 10.1173 3.7175 10.4775L5.95292 12.7121L6.65711 12.0082L6.88639 11.7708V10.3793L6.18219 11.0668Z" fill="white"/>
<path d="M8.67963 8.56207L8.54862 8.70123L8.2129 9.03683V8.56207H7.22211V11.4352L10.088 8.56207H8.67963Z" fill="white"/>
<path d="M14.9601 15.7817H10.8987L11.8976 16.7722H12.5609L12.2252 17.1078H12.2334L12.9294 17.8117L14.9601 15.7817Z" fill="white"/>
<path d="M3.19345 16.4857C3.25077 16.1501 3.34903 15.8226 3.50461 15.5198C3.54555 15.4216 3.60287 15.3233 3.66018 15.2251C3.87308 14.8649 4.12692 14.5375 4.4217 14.2428L5.71545 12.9577L5.01126 12.2538L3.7175 13.5471C3.34903 13.9072 3.03787 14.3165 2.77584 14.7585C2.71853 14.8567 2.6694 14.955 2.62027 15.0614C2.53019 14.9959 2.44012 14.9222 2.35005 14.8486C1.55578 14.161 1.11361 13.1542 1.11361 12.0164C1.11361 10.8622 1.55578 9.85539 2.35005 9.17599C2.18628 8.85675 2.05527 8.52115 1.95701 8.17735C0.728761 9.03683 0 10.4284 0 12.0246C0 13.6371 0.736949 15.0205 1.9652 15.8799C2.06346 15.9454 2.16172 16.0109 2.25998 16.0682C2.54657 16.2237 2.85773 16.3711 3.19345 16.4857Z" fill="white"/>
<path d="M15.5087 3.51978C15.5496 3.62619 15.5824 3.73261 15.607 3.83902C15.7134 4.24011 15.7707 4.64939 15.7625 5.06685V6.90041H16.7615V5.06685C16.7615 4.55116 16.696 4.03547 16.565 3.53615C16.5404 3.42974 16.4995 3.31514 16.4667 3.20873C16.5814 3.19236 16.696 3.17599 16.8106 3.1678C17.8506 3.09413 18.8823 3.48704 19.6847 4.29741C20.4872 5.10778 20.8966 6.13915 20.8229 7.17872C21.1668 7.28513 21.4944 7.43247 21.8137 7.60437C22.0757 6.13097 21.609 4.63301 20.479 3.50341C19.349 2.37381 17.8506 1.90723 16.3767 2.16917C16.262 2.18554 16.1392 2.2101 16.0246 2.24284C15.6888 2.33288 15.3531 2.45566 15.042 2.61119C15.2385 2.89768 15.3941 3.20055 15.5087 3.51978Z" fill="white"/>
<path d="M8.46673 20.4884C8.42579 20.382 8.39304 20.2756 8.36847 20.1692C8.26203 19.7681 8.20471 19.3588 8.2129 18.9413V17.116H7.22211V18.9413C7.22211 19.457 7.28761 19.9727 7.41863 20.472C7.44319 20.5866 7.48413 20.693 7.51689 20.7995C7.40225 20.8158 7.28761 20.8322 7.17298 20.8404C6.13306 20.9141 5.10133 20.5211 4.29068 19.7108C3.48823 18.9086 3.07881 17.869 3.15251 16.8295C2.8086 16.7149 2.48106 16.5757 2.16172 16.3956C1.90788 17.869 2.36643 19.367 3.49642 20.4966C4.62641 21.6262 6.13306 22.0928 7.59877 21.839C7.7216 21.8145 7.83623 21.7899 7.95087 21.7572C8.28659 21.6753 8.61412 21.5525 8.92528 21.397C8.73695 21.1105 8.58137 20.8076 8.46673 20.4884Z" fill="white"/>
<path d="M21.74 16.0437C21.6581 15.708 21.5353 15.3724 21.3797 15.0614C21.1013 15.2578 20.8065 15.4134 20.4872 15.528C20.3808 15.5689 20.2743 15.6016 20.1597 15.6262C19.7584 15.7326 19.349 15.7899 18.9314 15.7817H17.1054V16.7722H18.9314C19.4473 16.7722 19.9631 16.7067 20.4544 16.5757C20.5691 16.5512 20.6755 16.5184 20.782 16.4775C20.8065 16.5921 20.8147 16.7067 20.8229 16.8213C20.8966 17.8608 20.5036 18.8922 19.6929 19.7026C18.8823 20.513 17.8587 20.8977 16.8106 20.8322C16.7042 21.1842 16.5568 21.5198 16.3767 21.8308C17.8506 22.0928 19.3408 21.6262 20.479 20.4884C21.6172 19.3506 22.0757 17.8608 21.8137 16.3874L21.74 16.0437Z" fill="white"/>
<path d="M2.23541 7.97271C2.32549 8.30832 2.44831 8.64393 2.60389 8.95498C2.88229 8.75853 3.17707 8.603 3.49642 8.4884C3.60287 8.44748 3.70931 8.41473 3.82395 8.38199C4.22518 8.27558 4.6346 8.22647 5.0522 8.22647H6.8782V7.22783H5.0522C4.53634 7.22783 4.02866 7.29331 3.52917 7.42428C3.41453 7.44884 3.30809 7.48977 3.19345 7.52251C3.16888 7.40791 3.1607 7.29331 3.15251 7.17053C3.07881 6.13097 3.48004 5.10778 4.29069 4.28922C5.10133 3.47067 6.12487 3.09413 7.16479 3.15962C7.27124 2.80764 7.41863 2.47203 7.60696 2.16098C6.13306 1.91542 4.6346 2.37381 3.49642 3.5116C2.35824 4.64939 1.90788 6.13915 2.16172 7.61255C2.18628 7.73533 2.21085 7.84993 2.23541 7.97271Z" fill="white"/>
<path d="M15.5005 20.4884C15.3941 20.4393 15.2958 20.3902 15.1975 20.3329C14.8373 20.1282 14.5097 19.8745 14.2149 19.5798L12.9294 18.2865L12.2252 18.9904L13.5189 20.2838C13.8792 20.6521 14.2886 20.9632 14.739 21.2251C14.8373 21.2824 14.9355 21.3397 15.042 21.3888C14.9765 21.4789 14.9028 21.5689 14.8291 21.6507C14.1412 22.4447 13.1341 22.8868 11.9959 22.8868C10.8413 22.8868 9.83419 22.4447 9.14637 21.6507C8.82702 21.8145 8.49949 21.9454 8.14739 22.0437C9.00716 23.2715 10.391 24 11.9877 24C13.6008 24 14.9765 23.2633 15.8362 22.0437C15.9017 21.9454 15.9672 21.8472 16.0246 21.749C16.2047 21.4461 16.3603 21.1187 16.4667 20.7831C16.1392 20.734 15.8117 20.6357 15.5005 20.4884Z" fill="white"/>
<path d="M8.2129 10.9195L7.22211 11.91V12.573L6.88639 12.2456L6.8782 12.2374V12.2456L6.18219 12.9413L6.8782 13.6453L7.22211 13.9809L8.2129 14.9713V10.9195Z" fill="white"/>
<path d="M8.47492 3.51978C8.58137 3.56889 8.67963 3.61801 8.77789 3.67531C9.13818 3.87994 9.46571 4.1337 9.7523 4.42838L11.0461 5.72169L11.7503 5.01774L10.4647 3.72442C10.1044 3.35607 9.69498 3.04502 9.25281 2.78308C9.15455 2.72578 9.05629 2.66849 8.94985 2.61937C9.01535 2.52933 9.08905 2.43929 9.16274 2.34925C9.85056 1.56344 10.8577 1.11323 11.9959 1.11323C13.1505 1.11323 14.1576 1.56344 14.8373 2.34925C15.1566 2.18554 15.4923 2.04638 15.8362 1.95634C14.9683 0.728513 13.5844 0 11.9877 0C10.3664 0 8.99079 0.736699 8.1392 1.95634C8.07369 2.05457 8.00819 2.1528 7.95087 2.25102C7.77073 2.55389 7.62334 2.88131 7.5087 3.21692C7.84442 3.27422 8.16377 3.38063 8.47492 3.51978Z" fill="white"/>
<path d="M11.669 10.0928H10.498V13.9072H11.669C12.7417 13.9072 13.4786 13.1705 13.4786 12C13.4786 10.8295 12.7417 10.0928 11.669 10.0928Z" fill="white"/>
</svg>
