<svg width="89" height="89" viewBox="0 0 89 89" fill="none" xmlns="http://www.w3.org/2000/svg">
<path d="M44.5 0V89L8.79848 62.5702V33.8605L0 35.1271L19.6274 17.0569V40.4469C19.6274 43.5712 20.135 46.611 21.2348 49.482C23.942 56.5749 29.5257 61.8102 37.4781 64.0901L38.9164 58.686C39.5932 54.8017 38.2395 51.3397 33.4173 50.4108L44.5 0Z" fill="#E8BA1F"/>
<path d="M44.5 0V89L80.2015 62.5702V33.8605L89 35.1271L69.3726 17.0569V40.4469C69.3726 43.5712 68.865 46.611 67.7652 49.482C65.1426 56.5749 59.5589 61.8947 51.5219 64.0901L50.0837 58.686C49.4068 54.8017 50.7605 51.3397 55.5827 50.4108L44.5 0Z" fill="#C7962C"/>
</svg>
