{
  "accessors": [
    {
      "bufferView": 2,
      "componentType": 5126,
      "count": 15340,
      "max": [
        0.721435010433197,
        0.7170379757881165,
        4.524875164031982
      ],
      "min": [
        -1.00626802444458,
        -1.0106650590896606,
        0.002174000022932887
      ],
      "type": "VEC3"
    },
    {
      "bufferView": 2,
      "byteOffset": 184080,
      "componentType": 5126,
      "count": 15340,
      "max": [
        1.0,
        1.0,
        1.0
      ],
      "min": [
        -1.0,
        -1.0,
        -1.0
      ],
      "type": "VEC3"
    },
    {
      "bufferView": 3,
      "componentType": 5126,
      "count": 15340,
      "max": [
        1.0,
        1.0,
        0.9999966621398926,
        1.0
      ],
      "min": [
        -1.0,
        -1.0,
        -0.9999952912330627,
        -1.0
      ],
      "type": "VEC4"
    },
    {
      "bufferView": 1,
      "componentType": 5126,
      "count": 15340,
      "max": [
        0.9985030293464661,
        0.9468910098075867
      ],
      "min": [
        0.0015010000206530094,
        0.0014990000054240227
      ],
      "type": "VEC2"
    },
    {
      "bufferView": 0,
      "componentType": 5125,
      "count": 88452,
      "type": "SCALAR"
    }
  ],
  "asset": {
    "extras": {
      "author": "Ege Yavuz (https://sketchfab.com/egeyavuzozsoy03)",
      "license": "CC-BY-4.0 (http://creativecommons.org/licenses/by/4.0/)",
      "source": "https://sketchfab.com/3d-models/pepsi-coke-can-pepsi-kola-kutusu-e42e4a902b3146eca04573068e909067",
      "title": "Pepsi© Coke Can // Pepsi©  Kola Kutusu"
    },
    "generator": "Sketchfab-15.0.0",
    "version": "2.0"
  },
  "bufferViews": [
    {
      "buffer": 0,
      "byteLength": 353808,
      "name": "floatBufferViews",
      "target": 34963
    },
    {
      "buffer": 0,
      "byteLength": 122720,
      "byteOffset": 353808,
      "byteStride": 8,
      "name": "floatBufferViews",
      "target": 34962
    },
    {
      "buffer": 0,
      "byteLength": 368160,
      "byteOffset": 476528,
      "byteStride": 12,
      "name": "floatBufferViews",
      "target": 34962
    },
    {
      "buffer": 0,
      "byteLength": 245440,
      "byteOffset": 844688,
      "byteStride": 16,
      "name": "floatBufferViews",
      "target": 34962
    }
  ],
  "buffers": [
    {
      "byteLength": 1090128,
      "uri": "pepsi.bin"
    }
  ],
  "extensionsUsed": [
    "KHR_materials_specular"
  ],
  "images": [
    {
      "uri": "textures/Material.003_baseColor.png"
    },
    {
      "uri": "textures/Material.003_metallicRoughness.png"
    },
    {
      "uri": "textures/Material.003_normal.png"
    }
  ],
  "materials": [
    {
      "doubleSided": true,
      "extensions": {
        "KHR_materials_specular": {
          "specularColorFactor": [
            1.0,
            1.0,
            1.0
          ],
          "specularFactor": 0.18742914264119662
        }
      },
      "name": "Material.003",
      "normalTexture": {
        "index": 2
      },
      "pbrMetallicRoughness": {
        "baseColorTexture": {
          "index": 0
        },
        "metallicRoughnessTexture": {
          "index": 1
        }
      }
    }
  ],
  "meshes": [
    {
      "name": "Object_0",
      "primitives": [
        {
          "attributes": {
            "NORMAL": 1,
            "POSITION": 0,
            "TANGENT": 2,
            "TEXCOORD_0": 3
          },
          "indices": 4,
          "material": 0,
          "mode": 4
        }
      ]
    }
  ],
  "nodes": [
    {
      "children": [
        1
      ],
      "matrix": [
        0.059276826679706573,
        0.0,
        0.0,
        0.0,
        0.0,
        1.3162099561305001e-17,
        -0.059276826679706573,
        0.0,
        0.0,
        0.059276826679706573,
        1.3162099561305001e-17,
        0.0,
        0.0,
        0.0,
        0.0,
        1.0
      ],
      "name": "Sketchfab_model"
    },
    {
      "children": [
        2
      ],
      "name": "Pepsi V2.obj.cleaner.materialmerger.gles"
    },
    {
      "mesh": 0,
      "name": "Object_2"
    }
  ],
  "samplers": [
    {
      "magFilter": 9729,
      "minFilter": 9987,
      "wrapS": 10497,
      "wrapT": 10497
    }
  ],
  "scene": 0,
  "scenes": [
    {
      "name": "Sketchfab_Scene",
      "nodes": [
        0
      ]
    }
  ],
  "textures": [
    {
      "sampler": 0,
      "source": 0
    },
    {
      "sampler": 0,
      "source": 1
    },
    {
      "sampler": 0,
      "source": 2
    }
  ]
}
